<svg xmlns="http://www.w3.org/2000/svg">
  <symbol id="corner-grid" viewBox="0 0 220 220">
    <g fill="none" stroke="currentColor" stroke-width="1.3" stroke-linecap="round" stroke-linejoin="round" vector-effect="non-scaling-stroke">
      <path d="M34 14v182" />
      <path d="M34 60h60" />
      <path d="M34 118h102" />
      <path d="M34 176h54" />
      <path d="M90 118v72" />
      <path d="M136 34v84" />
      <path d="M136 34h70" />
      <path d="M170 34v120" />
      <path d="M170 154h36" />
    </g>
    <g fill="currentColor" stroke="none">
      <circle cx="34" cy="118" r="3.6" />
      <circle cx="34" cy="176" r="2.6" />
      <circle cx="90" cy="118" r="3.1" />
      <circle cx="136" cy="34" r="2.8" />
      <circle cx="170" cy="154" r="2.8" />
      <rect x="82" y="168" width="10" height="10" />
      <rect x="164" y="28" width="10" height="10" />
    </g>
  </symbol>

  <symbol id="dot-matrix" viewBox="0 0 120 120">
    <g fill="currentColor" stroke="none">
      <circle cx="14" cy="14" r="1.7" />
      <circle cx="34" cy="14" r="1.7" />
      <circle cx="54" cy="14" r="1.7" />
      <circle cx="74" cy="14" r="1.7" />
      <circle cx="94" cy="14" r="1.7" />
      <circle cx="14" cy="34" r="1.7" />
      <circle cx="34" cy="34" r="1.7" />
      <circle cx="54" cy="34" r="1.7" />
      <circle cx="74" cy="34" r="1.7" />
      <circle cx="94" cy="34" r="1.7" />
      <circle cx="14" cy="54" r="1.7" />
      <circle cx="34" cy="54" r="1.7" />
      <circle cx="54" cy="54" r="1.7" />
      <circle cx="74" cy="54" r="1.7" />
      <circle cx="94" cy="54" r="1.7" />
      <circle cx="14" cy="74" r="1.7" />
      <circle cx="34" cy="74" r="1.7" />
      <circle cx="54" cy="74" r="1.7" />
      <circle cx="74" cy="74" r="1.7" />
      <circle cx="94" cy="74" r="1.7" />
      <circle cx="14" cy="94" r="1.7" />
      <circle cx="34" cy="94" r="1.7" />
      <circle cx="54" cy="94" r="1.7" />
      <circle cx="74" cy="94" r="1.7" />
      <circle cx="94" cy="94" r="1.7" />
    </g>
  </symbol>

  <symbol id="crosshair" viewBox="0 0 120 120">
    <g fill="none" stroke="currentColor" stroke-width="1.4" stroke-linecap="round" vector-effect="non-scaling-stroke">
      <path d="M12 60h30" />
      <path d="M78 60h30" />
      <path d="M60 12v30" />
      <path d="M60 78v30" />
      <circle cx="60" cy="60" r="18" />
      <circle cx="60" cy="60" r="4.2" fill="currentColor" stroke="none" />
    </g>
  </symbol>

  <symbol id="orbit-ring" viewBox="0 0 240 240">
    <g fill="none" stroke="currentColor" stroke-width="1.3" stroke-linecap="round" stroke-linejoin="round" vector-effect="non-scaling-stroke">
      <circle cx="120" cy="120" r="98" />
      <circle cx="120" cy="120" r="78" opacity="0.42" />
      <path d="M120 18v16" />
      <path d="M190 120h16" />
    </g>
    <g fill="currentColor" stroke="none">
      <circle cx="58" cy="160" r="3.2" />
      <circle cx="180" cy="78" r="3.2" />
      <rect x="166" y="164" width="8" height="8" />
    </g>
  </symbol>

  <symbol id="arc-cluster" viewBox="0 0 240 180">
    <g fill="none" stroke="currentColor" stroke-width="1.3" stroke-linecap="round" vector-effect="non-scaling-stroke">
      <path d="M18 160A142 142 0 0 1 178 20" />
      <path d="M42 160A118 118 0 0 1 178 44" opacity="0.65" />
      <path d="M72 160A88 88 0 0 1 178 74" opacity="0.45" />
      <path d="M160 18h46" />
      <path d="M200 18v46" />
    </g>
    <g fill="currentColor" stroke="none">
      <circle cx="176" cy="20" r="3.4" />
      <circle cx="72" cy="160" r="2.6" />
      <rect x="166" y="78" width="8" height="8" />
    </g>
  </symbol>

  <symbol id="square-marker" viewBox="0 0 80 120">
    <g fill="none" stroke="currentColor" stroke-width="1.4" stroke-linecap="round" vector-effect="non-scaling-stroke">
      <path d="M40 14v92" />
      <path d="M18 46h22" />
      <path d="M40 68h22" />
    </g>
    <g fill="currentColor" stroke="none">
      <circle cx="40" cy="14" r="3.4" />
      <rect x="28" y="54" width="24" height="24" />
      <rect x="56" y="64" width="6" height="6" opacity="0.75" />
    </g>
  </symbol>

  <symbol id="numeric-mark" viewBox="0 0 160 40">
    <g fill="none" stroke="currentColor" stroke-width="1.2" stroke-linecap="round" vector-effect="non-scaling-stroke">
      <path d="M58 20h86" />
      <path d="M142 14v12" />
    </g>
    <g fill="currentColor" stroke="none" font-family="Inter, Arial, sans-serif" font-size="18" letter-spacing="3">
      <text x="10" y="26">01</text>
      <circle cx="58" cy="20" r="2.4" />
    </g>
  </symbol>

  <symbol id="soft-disc" viewBox="0 0 220 220">
    <g stroke="none" fill="currentColor">
      <circle cx="110" cy="110" r="108" opacity="0.2" />
      <circle cx="110" cy="110" r="74" opacity="0.12" />
    </g>
  </symbol>

  <symbol id="notice-icon" viewBox="0 0 24 24">
    <g fill="none" stroke="currentColor" stroke-width="1.7" stroke-linecap="round" stroke-linejoin="round" vector-effect="non-scaling-stroke">
      <path d="M4.5 11.25v2.5l4.75 1.35v-5.2L4.5 11.25Z" />
      <path d="M9.25 9.9l6.35-4.15v12.1l-6.35-2.75" />
      <path d="M15.6 8.4c1.55.92 2.5 2.51 2.5 4.35s-.95 3.43-2.5 4.35" />
      <path d="M6.7 14.6l1.35 4a1.35 1.35 0 0 0 1.7.85l1.05-.35" />
    </g>
  </symbol>

  <symbol id="paper-icon" viewBox="0 0 24 24">
    <g fill="none" stroke="currentColor" stroke-width="1.7" stroke-linecap="round" stroke-linejoin="round" vector-effect="non-scaling-stroke">
      <path d="M7 3.75h7.4L19 8.35V19.25A1.75 1.75 0 0 1 17.25 21H6.75A1.75 1.75 0 0 1 5 19.25V5.5A1.75 1.75 0 0 1 6.75 3.75Z" />
      <path d="M14.4 3.75v4.6H19" />
      <path d="M8.25 11.6h7.5" />
      <path d="M8.25 15.4h6.2" />
    </g>
  </symbol>

  <symbol id="talk-icon" viewBox="0 0 24 24">
    <g fill="none" stroke="currentColor" stroke-width="1.7" stroke-linecap="round" stroke-linejoin="round" vector-effect="non-scaling-stroke">
      <path d="M6.5 5h11A1.5 1.5 0 0 1 19 6.5v7A1.5 1.5 0 0 1 17.5 15H12l-3.75 4V15H6.5A1.5 1.5 0 0 1 5 13.5v-7A1.5 1.5 0 0 1 6.5 5Z" />
      <path d="M8.4 9.3h6.8" />
      <path d="M8.4 12h4.3" />
    </g>
  </symbol>

  <symbol id="toggle-icon" viewBox="0 0 24 24">
    <path d="M6.5 9.5 12 15l5.5-5.5" fill="none" stroke="currentColor" stroke-width="1.9" stroke-linecap="round" stroke-linejoin="round" vector-effect="non-scaling-stroke" />
  </symbol>
</svg>
